<svg xmlns="http://www.w3.org/2000/svg" xmlns:xlink="http://www.w3.org/1999/xlink" preserveAspectRatio="xMidYMid meet" viewBox="0 0 1350 1000" width="1000" height="740.74" xmlns:v="https://vecta.io/nano"><defs><path d="M1348.78 811.85l-7.14.6-3.6.26-3.62.24-3.65.22-3.66.2-3.7.17-3.7.14-3.72.1-3.72.08-3.74.05-3.75.02-3.76-.02-3.77-.04-3.78-.08-3.8-.12-3.8-.16-3.8-.2-3.8-.23-3.8-.28-3.8-.3-3.8-.36-3.8-.4-3.8-.45-3.8-.5-3.8-.53-3.78-.6-3.78-.63-3.76-.68-3.76-.74 113.4-8.4v12.55l-1.22.1zm-158.44-18.54l-.7-.3-1.36-.6-.7-.3-.68-.3-.7-.32-.68-.3-2.04-.96-.68-.33-.68-.32-.68-.33-1.36-.68-.68-.33-.67-.35-.68-.34-1.34-.7-.68-.36-.67-.35-.67-.36-.67-.37-.67-.36-.66-.37-.67-.37-.67-.38-1.32-.76-.66-.4-.66-.38-1.32-.8-.65-.4-.66-.4-1.95-1.23-.65-.42 186.5-14v16.25l-159.66 11.94zm-48.15-30.4l-.82-.68-1.2-1.05-.4-.36-.4-.35-.8-.72-.4-.37-.4-.36-1.56-1.48-.38-.37-.4-.38-1.52-1.52-.75-.77-.37-.4-.38-.4-.74-.78-1.1-1.2-.72-.8-.37-.4-.36-.4-.7-.8-.36-.4-.7-.82-.36-.4 223-16.63v16.26l-207.8 15.6zm-28.16-32.14l-.25-.38-.26-.37-.25-.37-.25-.38-.25-.37-.25-.38-.25-.37-.25-.38-.24-.38-.25-.37-.24-.38-.25-.38-.24-.37-.72-1.14-.24-.4-.24-.38-.23-.38-.24-.4-.24-.38-.23-.4-.24-.4-.23-.38-.23-.4-.24-.4-1.84-3.2-.22-.4-.46-.82-.22-.4-.46-.84 245.48-18.4v16.4l-235.97 17.57zm-17.53-32.63l-.36-.78-.85-1.95-.8-1.95-.16-.4-.15-.4-.16-.4-.3-.78-.15-.4-.3-.78-.15-.4-.14-.4-.3-.8-.14-.4-.3-.8-.14-.4-.15-.4-.14-.4-.3-.8-.14-.4-.3-.8-.75-2.05 259.68-19.4v16.28l-253.5 19.03zm-11.2-33.25l-.1-.38-.1-.4-.1-.38-2.6-10.4-.18-.8-.2-.8-.08-.4-.1-.4-.08-.4-.1-.4-.24-1.2L1350 628.8v16.28l-264.7 19.83zm-6.8-34.1l-.18-1.14-.05-.38-.06-.38-.06-.4-.05-.38-.06-.4-.05-.4-.06-.4-.05-.4-.06-.4-.1-.78-.05-.4-.06-.4-.2-1.6-.04-.4-.1-.8-.04-.4-.05-.4-.04-.4-.05-.4-.12-1.23-.04-.42-.04-.4-.04-.42-.03-.42-.04-.4-.15-2.1L1350 594.3v16.35l-271.5 20.16zm-3.6-33.4v-4.35-.42-3.73-.4-2.82l.07-2.8.02-.4v-.4-.4l.01-.4.02-.4 274.96-20.5v16.43l-275.1 20.62zm2.1-34.1l.05-.47.05-.46.06-.45.06-.46.12-.9.07-.45.06-.45.14-.88.08-.44.07-.43.08-.44.07-.43.08-.43.1-.42.08-.43.08-.42.27-1.26.18-.82.2-.82.9-3.6.33-1.17.1-.38.12-.4.1-.38 269.5-20.3v16.5l-273 20.58zm10.1-34.87l.4-.9.4-.88.2-.45.8-1.76.2-.43.42-.88.42-.86.22-.43.2-.44.44-.86.22-.42.66-1.3.22-.42.23-.43.22-.42.23-.43.7-1.26.23-.43.46-.84.24-.42.23-.42 1.2-2.1.25-.42 254.07-19.1v16.34l-262.9 19.94zm20.8-36l.3-.42.3-.4.58-.84.3-.42.58-.84.9-1.26.3-.43.3-.42.58-.86.3-.43.3-.42.6-.86.3-.44 1.2-1.72.3-.44.3-.43.3-.44.3-.43.3-.44.3-.43.6-.88.3-.43.6-.88.3-.43 1.2-1.76.3-.43 230.3-17.23v16.3l-242.1 18.13zm23.37-35.4l1.1-2.1.22-.43.66-1.26.22-.43.44-.84.22-.43.44-.84.44-.86.22-.42.44-.86.22-.42 1.1-2.15.22-.44.44-.86.22-.44.22-.43.23-.44 1.1-2.2.23-.44.22-.44.22-.45 209.9-15.8v16.4l-218.73 16.6zm16.8-35.78l.17-.4.16-.4.17-.4.48-1.2.17-.4.15-.4.32-.8.15-.4.16-.4.3-.82.16-.4.15-.4.14-.42.15-.4.15-.42.14-.4.15-.42.42-1.26.14-.43.14-.42.28-.86.13-.43.14-.43.13-.44.14-.44.4-1.32.13-.45.13-.44.12-.45.13-.46.12-.45 196.1-14.8v16.44l-201.92 15.2zm10.47-35.16l.1-.38.18-.78.1-.4.18-.78.2-.8.54-2.4.2-.8.18-.82.08-.4.1-.42.27-1.23.08-.42.1-.42.08-.42.1-.42.08-.42.1-.42.08-.42.08-.43.08-.42.32-1.72.07-.43.08-.44.07-.43.08-.44 188-14.08v16.32l-191.45 14.2zm189.3-63.77v.3l.01.3.03.95v.66l.02.35v.34l.06 1.08.02.38.03.37.02.4.06.8.02.4.03.4.04.42.06.86.04.43.04.44.03.45.08.92.05.47.04.47.05.48.04.5.1 1 .1 1.02.05.52.06.52.06.53-184.42 14.05 1.83-16.63 181.4-13.72v.28.3zm2.1-25.97l-.08.45-.07.45-.07.46-.07.47-.08.47-.14.96-.08.5-.14 1-.08.5-.07.5-.08.52-.07.53-.08.53-181.08 13.76.12-1.2.03-.4.04-.4.1-1.2.02-.4.03-.4.08-1.62.06-1.23.01-.4.02-.4.01-.42.02-.4v-.4-.42-.4l.02-.84.02-.4.02-.84.02-.4v-.84l.02-.42.01-.42.04-.83v-.42l.06-1.26L1350 287.3v8.65l-.06.4zm-181.36-13.46l-.01-.4v-.4l-.01-.4v-.4l-.02-.8v-.4l-.01-.4v-.4l-.01-.4v-.4l-.02-.8v-1.2-.4-.4l-.01-.4v-.4l-.01-.4v-.4l-.01-.4v-.4l-.01-.4v-.4l-.01-.4v-.4l-.01-.4v-.4l-.01-.4v-2.9l-.01-.42v-.42l181.6-13.6v16.53l-181.42 13.23zm-.22-34.03v-.42l-.01-.42v-.83l-.01-.42v-.83l-.01-.4v-.4l-.01-.4v-.4l-.01-.4v-2.4-.8-.4l-.01-.4v-.4l-.01-.4v-.4l-.01-.4v-.4l-.01-.4v-.4l-.02-.8v-2l-.02-.8v-.4-.4l181.8-13.6v16.36l-181.64 13.38zm.1-34l1.8-16.3L1350 185.1v16.32l-181.53 13.47zm5.43-34.4l.2-.86.1-.44.2-.86.1-.42.2-.86.22-.84.1-.43.55-2.1.1-.4.1-.42.12-.42.22-.82.12-.42.1-.4.24-.82.1-.42.12-.4.1-.4.48-1.64.1-.4.6-2.05.24-.8L1350 150.9v16.46l-176.1 13.13zm166.12-62.5l.44.52.22.27.23.28.23.3.72.9.5.64.26.33.52.68.27.35.28.37.27.36.3.38.28.38.9 1.2.3.42.62.84.32.44.3.44.33.45.32.46.33.46 1.02 1.44.7 1 .34.5v1.68l-164.98 12.34.23-.46.22-.47.23-.47.22-.46.23-.46.22-.45.23-.46.22-.45.23-.45.22-.45.23-.45.22-.44.7-1.32.22-.43.23-.44.46-.86.24-.43.46-.84.24-.43.24-.4.23-.42.24-.42.24-.4.25-.4.48-.82.5-.82.5-.8.26-.4.25-.4.78-1.2.27-.4 145.1-10.77.4.48zm-49.52-30.43l.84.2 1.68.46 1.68.48.83.26.84.26.83.27.83.28 1.66.6 1.64.6.82.32 1.64.66 1.62.7 1.6.72 1.6.76.8.4 1.58.8.8.4.78.42.78.43.77.43 2.3 1.35.76.46.75.47.76.48.74.5.75.5.74.5-110.84 8.27 1.34-1.22.67-.6.68-.6 1.36-1.16.7-.57.7-.56 1.4-1.1.7-.54.7-.53 1.42-1.04 1.42-1 1.44-.98.72-.47.73-.47.72-.46.73-.46.73-.44.74-.44.73-.43 1.48-.84 2.22-1.2.75-.38.74-.38.75-.37 1.5-.72.74-.35.76-.33.75-.34 1.5-.64 49.93-3.75.84.2.85.2z" id="A"/><linearGradient id="B" gradientUnits="userSpaceOnUse" x1="1388.44" y1="461.93" x2="1091.65" y2="429.28"><stop offset="0%" stop-color="#777"/><stop offset="100%" stop-color="#2c2c2c"/></linearGradient><path d="M1286.58 65.84l5.92.83 6.12 1.25 6.33 1.67 6.53 2.12 6.75 2.57 6.85 2.6 6.8 2.23 6.78 1.87 6.73 1.54 4.6.86v488.15l-1.67 8.8-1.2 6.2-1.23 6.2-1.25 6.15-1.3 6.1-1.36 6.04-1.4 5.95-1.5 5.87-1.58 5.75-1.67 5.64-1.77 5.5-1.88 5.36-2 5.2-2.14 5.03-2.3 4.84-2.43 4.64-2.6 4.43-2.78 4.2-2.96 3.96-3.15 3.7-1.64 1.82-1.64 1.87-1.65 1.9-5.04 5.88-1.72 2-1.76 2-1.78 2-1.83 1.97-1.86 1.96-1.9 1.93-1.96 1.9-2 1.85-2.07 1.8-2.13 1.76-2.2 1.7-2.27 1.62-2.34 1.55-2.4 1.47-2.5 1.38-2.6 1.28-2.67 1.17-2.77 1.07-2.87.95-2.97.82-3.08.7-3.2.55-3.3.4-3.42.25-3.55.1-3.67-.08-3.8-.25-3.93-.43-4.08-.63-4.23-.82-4.37-1.02-4.52-1.23-4.67-1.45-4.84-1.68-4.63-2.08-4.07-2.66-3.54-3.2-3.02-3.74-2.54-4.25-2.1-4.73-1.65-5.2-1.24-5.64-.86-6.05-.5-6.46-.18-6.82.14-7.18.4-7.5.66-7.8.9-8.1 1.1-8.37 1.28-8.6 1.43-8.83 1.55-9.02 1.66-9.2 1.73-9.35 3.6-19.06 3.6-19.4 1.73-9.77 1.65-9.8 1.55-9.8 1.43-9.77 1.27-9.72 1.1-9.65.88-9.56.66-9.44.4-9.3.12-9.15-.2-8.97-.52-8.76-.87-8.54-1.26-8.3-1.67-8.03-1.96-7.52-2.12-6.8-2.27-6.15-2.42-5.52-2.55-4.9-2.7-4.35-2.8-3.82-2.92-3.32-3.04-2.87-3.15-2.43-3.24-2.04-3.34-1.7-3.42-1.36-3.5-1.07-3.57-.8-3.64-.6-3.7-.4-3.75-.26-3.8-.14-3.83-.05-3.87-.01h-3.9l-3.92-.01-3.93-.08-3.93-.16-3.94-.28-3.93-.44-3.92-.64-3.9-.86-3.87-1.12-3.84-1.42-3.8-1.75-3.75-2.12-3.7-2.5-3.65-2.95-3.58-3.42-3.5-3.92-3.43-4.45-3.35-5.03-3.25-5.63-2.93-5.84-2.38-5.62-1.86-5.4-1.36-5.2-.87-5-.4-4.83.02-4.65.44-4.48.84-4.33 1.2-4.16 1.56-4.03 1.9-3.88 2.2-3.76 2.5-3.64 2.76-3.53 3-3.42 3.24-3.32 3.43-3.24 3.62-3.15 3.78-3.08 3.92-3.02 4.03-2.97 4.13-2.9 4.2-2.88 4.26-2.84 8.6-5.63 4.3-2.8 4.26-2.8 4.2-2.8 4.13-2.82 4.04-2.85 3.92-2.88 3.78-2.92 3.62-2.97 3.44-3.03 3.23-3.1 3-3.16 2.77-3.25 2.5-3.34 2.36-3.46 2.37-3.62 2.38-3.74 2.4-3.86 2.43-3.96 2.45-4.05 5.04-8.28 2.58-4.2 2.64-4.22 2.7-4.23 2.75-4.2 2.83-4.2 2.9-4.14 2.98-4.1 3.07-4 3.15-3.92 3.26-3.8 3.36-3.7 3.46-3.55 3.58-3.4 3.7-3.23 3.82-3.04 3.95-2.83 4.08-2.62 4.22-2.38 4.37-2.14 4.52-1.86 4.67-1.6 4.84-1.28 5-.97 5.17-.65 5.36-.3 5.53.06 5.73.45z" id="C"/><linearGradient id="D" gradientUnits="userSpaceOnUse" x1="1318.93" y1="681.83" x2="1094.13" y2="66.81"><stop offset="0%" stop-color="#777"/><stop offset="100%" stop-color="#2c2c2c"/></linearGradient><path d="M55.8 532.26l3.72.8 3.54 1.15 3.35 1.54 3.15 1.92L72.5 540l2.7 2.74 2.46 2.94 2.17 2.93 1.9 2.94 1.66 2.94 1.43 2.95 1.2 2.97 1 2.98.8 3 .6 3.03.43 3.05.28 3.1.14 3.13v3.16l-.1 3.2-.22 3.26-.32 3.3-.4 3.37-.45 3.43-.5 3.5-.55 3.56-.57 3.64-.6 3.7-.6 3.8-.57 3.88-.55 3.97-.5 4.06-.46 4.15-.38 4.26-.3 4.37-.2 4.47-.1 4.6v4.7l.14 4.82.3 4.95.44 5.08.62 5.2.8 5.35 1 5.48 1.2 5.64 1.44 5.78 1.63 5.8 1.8 5.64 1.95 5.5 2.1 5.37 2.2 5.24 2.33 5.1 2.42 4.98 2.5 4.86 2.6 4.74 2.65 4.6 2.7 4.5 2.74 4.4 2.77 4.27 2.78 4.17 2.78 4.06 2.77 3.96 2.75 3.87 2.7 3.76 5.27 7.25 2.53 3.5 2.45 3.4 2.35 3.32 2.25 3.25 2.12 3.16 2 3.1 1.84 3.02 1.7 2.96 1.5 2.88 1.33 2.82 1.14 2.77.93 2.7.7 2.65.48 2.6.23 2.55-.03 2.5-.3 2.46-.57 2.42-.87 2.37-1.17 2.35-3.18 5.23-3.34 4.9-3.5 4.54-3.66 4.2-3.8 3.9-3.95 3.56-4.08 3.25-4.2 2.94-4.33 2.64-4.46 2.35-4.57 2.07-4.68 1.8-4.78 1.52-4.87 1.26-4.97 1-5.06.75-5.13.5-5.2.28-5.28.05-5.35-.17-5.4-.38-5.45-.6-5.5-.8-5.54-.98-5.58-1.16-5.6-1.33-5.63-1.5-5.65-1.67-5.66-1.83-5.67-1.97-5.67-2.12-5.67-2.24-2.5-1.04V548.4l1.17-.7 5-2.8 4.96-2.56 4.9-2.32 4.84-2.05 4.75-1.77 4.67-1.5 4.57-1.2 4.45-.9 4.33-.58 4.2-.26 4.05.08 3.9.43z" id="E"/><linearGradient id="F" gradientUnits="userSpaceOnUse" x1="145.47" y1="580.94" x2="-17.13" y2="865.38"><stop offset="0%" stop-color="#777"/><stop offset="100%" stop-color="#2c2c2c"/></linearGradient><path d="M41.06 900.86l-.8 1.3-.4.66-.4.64-.4.65-1.68 2.56-1.3 1.9-.44.63-.43.62-.44.63-.45.62-.44.6-.44.62-.9 1.22-.46.6-.45.6-2.3 3-.94 1.18-.46.6-.48.6-.94 1.16-.48.58-.47.58-.48.58-.48.57-.5.57L0 933.88v-17.43l41.86-16.9-.8 1.32zm19.32-44.6l-.56 2.08-.15.52-.14.52-.45 1.56-.16.5-.15.52-.16.52-.16.5-.16.52-.16.5-.85 2.55-.18.5-.17.5-.18.5-.2.5-.18.5-.2.5-.18.5-1.4 3.5-.84 1.96L0 897.3v-17.55l60.65-24.54-.14.52-.13.53zm6-39.22l-.02.48-.03.47-.02.47-.04.93-.2 3.22-.04.45-.03.46-.24 2.7-.05.45-.04.45-.05.44-.05.45-.04.45-.05.44-.05.45-.06.44-.1.9-.06.44-.06.45-.05.45-.06.44-.18 1.35-.07.45L0 860.5v-17.55l66.4-26.86v.48.47zm-1.73-35.88l.04.43.05.44.1.86.04.42.1.86.04.42.05.43.05.42.04.42.05.42.04.43.05.42.04.42.05.42.04.4.24 2.52.03.42.04.42.15 2.1v.42l.03.42.08 1.7v.43l.02.43L0 823.94V806.4l64.56-26.1.04.43.05.44zm-6.7-33.9l1.2 4.8.18.8.2.8.18.8.2.8.08.4.18.8.16.8.1.4.64 3.2.07.4.16.78.07.4L0 787.3v-17.47l57.75-23.34.2.8zm-10.72-32.8l.16.4.15.4.16.4.15.4.16.4.3.78.14.38.3.78.14.38.14.4.14.38.14.4.14.38.14.4.13.38.14.38.13.38.14.38.4 1.14.12.38.13.37.13.38.12.37.13.38.36 1.1.13.37.12.37.1.37.24.74.12.36.1.37L0 750.1v-17.45l46.9-18.98.17.4.16.4zm-13.53-31.1l.2.34.18.35.38.7.18.35.2.35.18.35.2.35.18.36.18.35.2.36.18.36.18.35.18.36.2.36.18.37.36.72.2.37.54 1.1.2.37.18.37.2.38.18.37.2.38.18.38.2.38.2.4.2.38.76 1.56.6 1.2L0 713.85v-17.72l33.32-13.48.38.7zm-19.95-28.53l.28.3 1.36 1.5.8.93.54.64.26.3.27.33.54.64.26.33.27.33.26.34.27.33.52.68.27.35.26.34.52.7 1.04 1.44.26.37.25.37.26.37.26.38.25.37.26.4.25.38.25.4.26.4L0 677.33v-17.77l13.2-5.33.54.6z" id="G"/><linearGradient id="H" gradientUnits="userSpaceOnUse" x1="-60.92" y1="838.51" x2="76.75" y2="750.53"><stop offset="0%" stop-color="#7a7a7a"/><stop offset="100%" stop-color="#4b4b4b"/></linearGradient></defs><use xlink:href="#A" fill="url(#B)"/><use xlink:href="#A" fill-opacity="0" stroke="#000" stroke-opacity="0"/><use xlink:href="#C" fill="url(#D)"/><use xlink:href="#C" fill-opacity="0" stroke="#000" stroke-opacity="0"/><use xlink:href="#E" fill="url(#F)"/><use xlink:href="#G" fill="url(#H)"/><use xlink:href="#G" fill-opacity="0" stroke="#000" stroke-opacity="0"/></svg>