<svg xmlns="http://www.w3.org/2000/svg" xmlns:xlink="http://www.w3.org/1999/xlink" preserveAspectRatio="xMidYMid meet" width="1350" height="1000" xmlns:v="https://vecta.io/nano"><defs><path d="M1349.96 664.48l-3.42.25-3.54.1-3.68-.08-3.8-.25-3.94-.43-4.08-.63-4.22-.82-4.37-1.02-4.52-1.23-4.68-1.45-4.84-1.68-4.63-1.92-4.07-2.2-3.53-2.45-3.03-2.7-2.54-2.95-2.08-3.2-1.65-3.42-1.24-3.66-.86-3.88-.5-4.1-.17-4.3.13-4.52.4-4.72.67-4.9.9-5.1 1.1-5.28 1.28-5.46 1.43-5.62 1.56-5.8 1.66-5.95 5.32-18.74 1.8-6.52 1.78-6.65 1.73-6.78 1.66-6.9 1.55-7 1.42-7.1 1.27-7.2 1.1-7.3.9-7.38.66-7.47.4-7.54.12-7.6-.2-7.67-.52-7.73-.88-7.78-1.26-7.82-1.67-7.87-1.84-7.65-1.77-7.2-1.7-6.78-1.65-6.38-1.6-6-1.54-5.62-1.5-5.3-1.46-4.96-1.43-4.67-1.4-4.38-1.38-4.13-1.36-3.9-1.35-3.67-1.35-3.48-1.35-3.3-1.35-3.15-1.37-3.02-1.38-2.9-1.4-2.82-1.44-2.75-1.46-2.7-1.5-2.67-1.54-2.67-1.6-2.68-1.65-2.7-1.72-2.78-1.78-2.85-5.78-9.22-2.1-3.37-4.5-7.3-2.4-3.98-2.5-4.23-2.62-4.5-2.74-4.78-2.87-5.08-3-5.42-3.13-5.77-2.96-5.87-2.47-5.7-2-5.57-1.56-5.43-1.12-5.3-.7-5.16-.32-5.03.05-4.92.4-4.8.74-4.7 1.06-4.58 1.35-4.48 1.62-4.4 1.9-4.3 2.12-4.2 2.34-4.13 2.54-4.07 2.73-4 2.88-3.93 3.03-3.87 3.15-3.83 3.25-3.77 3.34-3.73 3.4-3.7 3.45-3.66 3.48-3.64 6.96-7.23 3.45-3.6 3.4-3.6 3.32-3.6 3.24-3.6 3.14-3.6 3-3.62 2.86-3.65 2.7-3.67 2.5-3.7 2.3-3.75 2.1-3.78 1.85-3.84 1.7-3.9 1.6-3.96 1.55-4.03 1.5-4.06 1.47-4.1 1.43-4.1 2.82-8.24 1.4-4.1 1.42-4.07 1.44-4.02 1.48-3.97 1.52-3.9 1.58-3.82 1.64-3.73 1.72-3.62 1.8-3.5 1.9-3.38 2-3.23 2.13-3.08 2.26-2.9 2.4-2.73 2.55-2.54 2.7-2.33 2.88-2.13 3.05-1.9.17-.08v656.2l-3.04.37z" id="A"/><linearGradient id="B" gradientUnits="userSpaceOnUse" x1="1348.21" y1="612.54" x2="1251.98" y2="18.66"><stop offset="0%" stop-color="#777"/><stop offset="100%" stop-color="#2c2c2c"/></linearGradient><path d="M55.8 583.26l3.72.8 3.54 1.15 3.35 1.54 3.15 1.92 2.94 2.32 2.7 2.74 2.46 2.94 2.17 2.93 1.9 2.94 1.66 2.94 1.43 2.95 1.2 2.97 1 2.98.8 3 .6 3.03.43 3.05.28 3.1.14 3.13v3.16l-.1 3.2-.22 3.26-.32 3.3-.4 3.37-.45 3.43-.5 3.5-.55 3.56-.57 3.64-.6 3.7-.6 3.8-.57 3.88-.55 3.97-.5 4.06-.46 4.15-.38 4.26-.3 4.37-.2 4.47-.1 4.6.01 4.7.14 4.82.3 4.95.44 5.08.62 5.2.8 5.35 1 5.48 1.2 5.64 1.44 5.78 1.63 5.8 1.8 5.64 1.95 5.5 2.1 5.37 2.2 5.24 2.33 5.1 2.42 4.98 2.5 4.86 2.6 4.74 2.65 4.6 2.7 4.5 2.74 4.4 2.77 4.27 2.78 4.17 2.78 4.06 2.77 3.96 2.75 3.87 2.7 3.76 2.67 3.67 2.6 3.58 2.53 3.5 2.45 3.4 2.35 3.32 2.25 3.25 2.12 3.16 2 3.1 1.84 3.02 1.7 2.96 1.5 2.88 1.33 2.82 1.14 2.77.93 2.7.7 2.65.48 2.6.23 2.55-.03 2.5-.3 2.46-.57 2.42-.87 2.37-1.17 2.35-3.18 5.23-3.34 4.9-3.5 4.54-3.66 4.2-3.8 3.9-3.95 3.56-4.08 3.25-4.2 2.94-4.33 2.64-4.46 2.35-4.57 2.07-4.68 1.8-4.78 1.52-4.87 1.26-4.97 1-5.06.75-5.13.5-5.2.28-5.28.05-5.35-.17-5.4-.38-5.45-.6-5.5-.8-5.54-.98-5.58-1.16-5.6-1.33-5.63-1.5-5.65-1.67-5.66-1.83-5.67-1.97-5.67-2.12-5.67-2.24L0 926.17V599.4l1.17-.7 5-2.8 4.96-2.56 4.9-2.32 4.84-2.05 4.75-1.77 4.67-1.5 4.57-1.2 4.45-.9 4.33-.58 4.2-.26 4.05.08 3.9.43z" id="C"/><linearGradient id="D" gradientUnits="userSpaceOnUse" x1="145.47" y1="631.94" x2="-17.13" y2="916.38"><stop offset="0%" stop-color="#777"/><stop offset="100%" stop-color="#2c2c2c"/></linearGradient><path d="M32.4 592.65c4.03 23.7.44 56.36 24.14 56.36s21.47-21.92 25.5-42.94c4.03-21.02 20.88-40.87 13.38-54.84-7.8-14.55-26.8-13.6-38.87-13.6-23.7 0-28.17 31.32-24.14 55.02z" id="E"/><path d="M6.2 680.37l2.02.4 2 .52 1.97.65 1.93.77 1.9.9 1.87 1.03 1.84 1.16 1.8 1.3 1.76 1.43L25 690.1l1.7 1.7 1.64 1.85 1.6 2 1.55 2.15 1.5 2.3 1.45 2.44 1.4 2.6 1.35 2.76 1.3 2.9 1.24 3.08 1.18 3.24 1.13 3.4 1.06 3.58 1 3.74.94 3.92.87 4.1.8 4.27.74 4.45.66 4.63.6 4.8.5 5 .45 5.2.37 5.37.28 5.57.2 5.77.13 5.96.04 6.16-.03 2.85-.1 2.87-.14 2.9-.2 2.9-.24 2.9-.28 2.9-.33 2.93-.37 2.93-.4 2.95-.44 2.94-.48 2.96-.5 2.96-.53 2.96-.56 2.96-.58 2.97-.6 2.96-.6 2.97-.63 2.96-1.28 5.92-.65 2.96-.66 2.95-.65 2.94-.66 2.94-1.28 5.85-.63 2.9-.62 2.9-.6 2.9-.58 2.87-.56 2.86-.53 2.85-.5 2.83-.48 2.8-.45 2.8-.4 2.78-.37 2.75-.34 2.74-.3 2.72-.24 2.7-.25 2.7-.28 2.7-.32 2.7-.35 2.68-.4 2.68-.43 2.67-.46 2.65-.5 2.64-.54 2.6-.56 2.58-.6 2.56-.63 2.52-.65 2.5-.7 2.44-.72 2.4-.74 2.35-.77 2.3-.8 2.24-.82 2.18-.84 2.12-.87 2.05-.9 2-.9 1.9-.93 1.83-.95 1.75-.96 1.66-1 1.57-1 1.48-1.02 1.38-1.04 1.28-1.05 1.18-1.06 1.07-1.08.96-1.08.84-1.1.72-1.1.6-1.12.47-1.13.35-1.13.2-1.14.07V679.86l2.1.06 2.07.17 2.04.28z" id="F"/><mask id="G" x="-10" y="669.86" width="70.7" height="322.48" maskUnits="userSpaceOnUse"><path fill="#fff" d="M-10 669.86h70.7v322.48H-10z"/><use xlink:href="#F" opacity="1" fill="#000"/></mask><path d="M1349.2 616.46l-11.85-1.7-11.1-2.14-10.35-2.55-9.64-2.95-8.94-3.34-8.27-3.7-7.62-4.05-7-4.37-6.4-4.67-5.8-4.96-5.26-5.23-4.7-5.47-4.2-5.7-3.72-5.92-3.24-6.1-2.8-6.27-2.38-6.42-1.98-6.56-1.6-6.66-1.25-6.77-.92-6.83-.6-6.9-.32-6.92-.06-6.95.2-6.93.4-6.92.6-6.87.78-6.82.93-6.73 1.06-6.63 1.17-6.52 1.25-6.38 1.3-6.22 1.35-6.04 1.37-5.85 1.36-5.63 1.33-5.4.9-3.38.92-3.23.96-3.07 1-2.94 1.03-2.8 1.05-2.7 1.1-2.58 1.1-2.48 1.13-2.4 1.16-2.33 1.17-2.27 1.2-2.2 1.2-2.17 1.22-2.14 1.22-2.13 1.24-2.1 3.73-6.42 1.24-2.2 1.24-2.25 1.24-2.3 1.23-2.38 1.2-2.46 1.2-2.55 1.2-2.65 1.17-2.77 1.15-2.9 1.13-3.03 1.1-3.17 1.08-3.34 1.06-3.5 1.02-3.7 1-3.88.96-4.08.92-4.3.88-4.52.83-4.75.8-5 .74-5.26.67-5.65.46-5.5.26-5.35.08-5.2-.1-5.06-.25-4.94-.4-4.8-.55-4.7-.67-4.56-.8-4.46-.9-4.34-1-4.24-1.1-4.15-1.18-4.06-1.25-3.96-1.3-3.9-1.35-3.8-1.4-3.74-1.4-3.67-1.44-3.6-1.43-3.55-1.44-3.5-1.4-3.46-1.4-3.42-1.35-3.38-1.3-3.35-1.25-3.33-1.2-3.3-1.1-3.3-1.02-3.3-.92-3.28-.8-3.28-.7-3.3-.56-3.3-.42-3.3-.27-3.34-.1-3.36.07-3.4.24-3.43.44-3.48.8-5 .85-4.92.9-4.84.96-4.75 1.04-4.66 1.1-4.57 1.18-4.47 1.26-4.37 1.36-4.26 1.44-4.16 1.55-4.04 1.66-3.93 1.76-3.8 1.9-3.68 2-3.56 2.14-3.42 2.27-3.3 2.4-3.15 2.56-3 2.7-2.86 2.87-2.7 3.03-2.56 3.2-2.4 3.38-2.24 3.55-2.08 3.74-1.9 3.94-1.74 4.13-1.56 4.33-1.38 4.55-1.2 4.76-1 4.98-.82 5.2-.62 5.44-.43 4.93-.2v585.1l-1.1-.1z" id="H"/><mask id="I" x="1219.19" y="21.48" width="141.12" height="605.09" maskUnits="userSpaceOnUse"><path fill="#fff" d="M1219.2 21.48h141.12v605.1H1219.2z"/><use xlink:href="#H" opacity="1" fill="#000"/></mask></defs><use xlink:href="#A" fill="url(#B)"/><use xlink:href="#A" fill-opacity="0" stroke="#000" stroke-opacity="0"/><use xlink:href="#C" fill="url(#D)"/><use xlink:href="#E" fill-opacity="0" stroke="#e1e1e1" stroke-width="5"/><g mask="url(#G)"><use xlink:href="#F" fill-opacity="0" stroke="#fff" stroke-width="10"/></g><g mask="url(#I)"><use xlink:href="#H" fill-opacity="0" stroke="#e3e3e3" stroke-width="10"/></g></svg>