<svg xmlns="http://www.w3.org/2000/svg" xmlns:xlink="http://www.w3.org/1999/xlink" preserveAspectRatio="xMidYMid meet" width="150" height="1000" xmlns:v="https://vecta.io/nano"><defs><path d="M147.96 704.62l-3.42.25-3.54.1-3.68-.08-3.8-.25-3.94-.44-4.08-.62-4.22-.82-4.37-1.02-4.52-1.24-4.68-1.45-4.84-1.67-4.7-1.98-4.3-2.36-3.92-2.72-3.55-3.06-3.18-3.38-2.84-3.68-2.5-3.98-2.2-4.25-1.87-4.5-1.6-4.74-1.3-4.97-1.04-5.17-.8-5.36-.54-5.53-.33-5.68-.1-5.8.1-5.94.27-6.04.44-6.12.6-6.2.74-6.24.87-6.27.98-6.3 1.1-6.28 1.17-6.28 1.25-6.23 1.3-6.2 1.35-6.1 1.4-6.03 1.4-5.93 1.4-5.8 1.4-5.67 5.28-20.96 1.16-4.72 1.08-4.5.97-4.22.85-3.95 1-5.18.8-5.07.64-4.95.47-4.86.3-4.77.13-4.68-.03-4.6-.18-4.52-.34-4.47-.5-4.4-.63-4.35-.78-4.3-.9-4.27-1.05-4.24-1.18-4.22-1.3-4.2-1.42-4.2-1.55-4.18-1.66-4.2-1.78-4.2-1.88-4.22-1.98-4.24-2.08-4.28-2.18-4.3-2.27-4.36-2.36-4.4-2.45-4.47-2.52-4.54-2.6-4.6-2.68-4.7-2.74-4.78-8.6-14.92-2.98-5.2-3.03-5.3-3.08-5.45L36.7 319l-3.15-5.72-3.2-5.87-2.96-5.87-2.47-5.72-2-5.57-1.56-5.42-1.12-5.3-.7-5.16-.32-5.04.05-4.9.4-4.8.74-4.68 1.06-4.58 1.35-4.48 1.62-4.4 1.9-4.3 2.12-4.2 2.34-4.14 2.54-4.06 2.73-4 2.88-3.93 3.03-3.88 3.15-3.82 3.25-3.77 3.34-3.74 3.4-3.7 3.45-3.67 3.48-3.64 10.4-10.8 3.4-3.6 3.32-3.6 3.24-3.6 3.14-3.6 3-3.62 2.86-3.65 2.7-3.67 2.5-3.7 2.3-3.74 2.1-3.8 1.85-3.83 1.7-3.9 1.6-3.97 1.55-4.02 1.5-4.06 1.47-4.1 1.43-4.12 2.82-8.23 1.4-4.1 1.42-4.06 1.44-4.02 1.48-3.97 1.52-3.9 1.58-3.82 1.64-3.72 1.72-3.62 1.8-3.5 1.9-3.37 2-3.23 2.13-3.08 2.26-2.9 2.4-2.73 2.55-2.54 2.7-2.34 2.88-2.12 3.05-1.9.17-.08v656.2l-3.04.37z" id="A"/><linearGradient id="B" gradientUnits="userSpaceOnUse" x1="146.21" y1="652.68" x2="49.98" y2="58.8"><stop offset="0%" stop-color="#777"/><stop offset="100%" stop-color="#2c2c2c"/></linearGradient><path d="M150.38 655.74l-11.72-2.3-10.94-2.9-10.17-3.44-9.43-3.96-8.7-4.44-8.03-4.9-7.37-5.3-6.74-5.67-6.12-6.02-5.53-6.32-4.98-6.6-4.45-6.82-3.93-7.03-3.46-7.2-3-7.33-2.57-7.44-2.16-7.5-1.78-7.52-1.44-7.52-1.1-7.48-.8-7.4-.52-7.3-.27-7.16-.05-6.97.15-6.76.33-6.52.47-6.23.6-5.92.7-5.56.76-5.18.8-4.76.83-4.3.83-3.8.8-3.3.74-2.73.65-2.13.54-1.5.52-1.25.6-1.38.67-1.52.73-1.64.8-1.77.86-1.9.92-2 .98-2.12 3.2-6.98 2.34-5.15 1.22-2.72 1.25-2.8 1.27-2.88 2.6-6 1.32-3.1 1.34-3.17 1.34-3.24 1.34-3.3 1.34-3.36 1.34-3.4 1.32-3.46 1.32-3.5 1.3-3.55 1.28-3.58 1.26-3.6 1.23-3.65 1.2-3.67 1.17-3.7 1.13-3.72 1.08-3.73 1.04-3.74 1-3.75.94-3.75.88-3.76.82-3.75.75-3.74.62-3.76.42-3.8.24-3.83.05-3.87-.12-3.9-.28-3.92-.42-3.95-.57-3.98-.7-4-.8-4.02-.9-4.03-1.02-4.05-1.1-4.06-1.18-4.07-1.24-4.08-1.3-4.08-1.35-4.1-1.38-4.1-1.4-4.08-1.42-4.1-1.43-4.07-1.42-4.07-1.4-4.06-1.38-4.04-1.34-4.03-1.3-4-1.24-4-1.17-3.97-1.1-3.94-1-3.92-.9-3.9-.8-3.85-.68-3.83-.55-3.8-.4-3.74-.26-3.7-.1-3.67.07-3.62.25-3.57.44-3.52.8-5 .85-4.92.9-4.84.96-4.75 1.04-4.67 1.1-4.56 1.18-4.47 1.26-4.37 1.36-4.27 1.44-4.15 1.55-4.04 1.66-3.93 1.76-3.8 1.9-3.7 2-3.55 2.14-3.42 2.27-3.3 2.4-3.15 2.56-3 2.7-2.86 2.87-2.7 3.03-2.56 3.2-2.4 3.38-2.24 3.55-2.08 3.74-1.9 3.94-1.73 4.13-1.56 4.33-1.38 4.55-1.2 4.76-1 4.98-.82 5.2-.62 5.44-.43 4.93-.2v584.26l-.94-.13z" id="C"/><mask id="D" x="25.11" y="61.61" width="136.21" height="604.26" maskUnits="userSpaceOnUse"><path fill="#fff" d="M25.1 61.6h136.2v604.26H25.1z"/><use xlink:href="#C" opacity="1" fill="#000"/></mask></defs><use xlink:href="#A" fill="url(#B)"/><use xlink:href="#A" fill-opacity="0" stroke="#000" stroke-opacity="0"/><g mask="url(#D)"><use xlink:href="#C" fill-opacity="0" stroke="#e3e3e3" stroke-width="10"/></g></svg>