<?xml version="1.0" encoding="UTF-8" standalone="no"?>
<!DOCTYPE svg PUBLIC "-//W3C//DTD SVG 1.1//EN" "http://www.w3.org/Graphics/SVG/1.1/DTD/svg11.dtd">
<svg version="1.1" xmlns="http://www.w3.org/2000/svg" xmlns:xlink="http://www.w3.org/1999/xlink" preserveAspectRatio="xMidYMid meet" viewBox="0 0 1350 1000" width="1350" height="1000"><defs><path d="M0 0L1350 0L1350 1000L0 1000L0 0Z" id="a9VDdSGS4"></path><path d="M1461.95 790.83C1438.73 797.85 1412.36 803.54 1382.83 807.88C1339.58 814.01 1286.68 817.77 1236.63 807.64C1281.69 804.28 1439.42 792.52 1461.95 790.83ZM1543.29 750.6C1505.31 753.45 1201.49 776.28 1163.51 779.13C1172.14 784.7 1181.2 789.33 1190.34 793.31C1212.02 791.69 1320.41 783.58 1515.52 769C1528.48 761.18 1537.74 755.05 1543.29 750.6ZM1575.68 714.22C1530.81 717.57 1171.89 744.37 1127.02 747.72C1131.7 753.19 1136.75 758.36 1142.19 762.92C1170.26 760.82 1310.6 750.29 1563.23 731.33C1569.12 723.84 1573.27 718.13 1575.68 714.22ZM1590.13 678.84C1541.57 682.47 1153.08 711.57 1104.52 715.21C1107.54 720.82 1110.62 725.78 1114.03 730.78C1145.41 728.44 1302.28 716.76 1584.64 695.73C1587.22 688.31 1589.05 682.68 1590.13 678.84ZM1595.57 644.45C1545.04 648.23 1140.84 678.5 1090.32 682.29C1092.35 687.79 1094.1 692.94 1096.5 698.15C1129.67 695.66 1295.54 683.21 1594.1 660.79C1594.89 653.61 1595.38 648.17 1595.57 644.45ZM1595.02 610.39C1543.66 614.24 1132.8 645.1 1081.44 648.96C1082.5 654.36 1083.88 659.79 1085.3 664.9C1119.34 662.35 1289.53 649.6 1595.87 626.65C1595.55 619.58 1595.27 614.15 1595.02 610.39ZM1592.32 589.95C1591.52 585.24 1590.35 580.82 1589.19 576.4C1537.93 580.24 1127.88 610.93 1076.62 614.76C1076.99 620.41 1077.72 625.78 1078.49 630.81C1112.77 628.27 1284.16 615.54 1592.68 592.63C1592.59 591.52 1592.46 590.63 1592.32 589.95ZM1571.65 543.78C1521.99 547.49 1124.72 577.21 1075.06 580.92C1074.81 586.17 1074.89 591.46 1074.9 597.41C1108.69 594.87 1277.66 582.21 1581.81 559.42C1577.53 552.34 1574.14 547.13 1571.65 543.78ZM1538.17 512.03C1492.4 515.48 1126.26 543.08 1080.49 546.53C1078.94 551.64 1077.68 557.11 1077 563.31C1108.93 560.9 1268.59 548.86 1555.98 527.2C1548.36 520.42 1542.43 515.36 1538.17 512.03ZM1491.68 481.5C1452.11 484.48 1135.5 508.28 1095.93 511.25C1092.67 516.84 1089.74 522.46 1087.11 528.44C1115.64 526.27 1258.34 515.45 1515.18 495.97C1504.88 489.56 1497.05 484.74 1491.68 481.5ZM1441.21 451.2C1409.06 453.6 1151.85 472.84 1119.69 475.25C1115.75 481.09 1111.81 486.92 1107.9 492.44C1131.71 490.65 1250.75 481.74 1465.03 465.7C1454.3 459.24 1446.36 454.4 1441.21 451.2ZM1398.39 420.41C1372.56 422.35 1165.92 437.91 1140.09 439.86C1137.13 445.81 1134.2 451.43 1131.27 457.04C1150.33 455.6 1245.64 448.37 1417.21 435.35C1408.46 428.89 1402.18 423.91 1398.39 420.41ZM1369.25 388.15C1347.72 389.78 1175.43 402.78 1153.89 404.41C1152.23 410.5 1150.32 415.9 1148.08 421.26C1163.63 420.09 1241.41 414.23 1381.41 403.69C1375.77 396.9 1371.72 391.73 1369.25 388.15ZM1353.06 355.34C1333.95 356.77 1181.11 368.22 1162.01 369.65C1161.04 375.48 1159.77 380.96 1158.55 386.1C1171.93 385.11 1238.82 380.15 1359.23 371.21C1356.26 364.28 1354.2 358.99 1353.06 355.34ZM1347.84 321.76C1335.74 322.67 1275.27 327.25 1166.43 335.48L1164.6 352.11L1349.02 338.06C1348.26 330.94 1347.87 325.5 1347.84 321.76ZM1351.64 287.19C1333.33 288.57 1186.87 299.66 1168.56 301.05C1168.28 306.63 1168.32 312.25 1167.75 317.47C1179.82 316.55 1240.18 311.96 1348.83 303.71C1349.84 296.56 1350.78 291.05 1351.64 287.19ZM1358.28 262.83C1359.33 259.32 1360.7 255.84 1361.42 252.28C1342.12 253.73 1187.68 265.26 1168.38 266.7C1168.42 272.32 1168.5 277.61 1168.58 282.9C1181.09 281.98 1243.65 277.42 1356.26 269.21C1357 266.43 1357.68 264.31 1358.28 262.83ZM1368.52 217.74C1348.49 219.24 1188.2 231.18 1168.16 232.68C1168.24 237.97 1168.32 243.26 1168.36 248.87C1181.54 247.9 1247.43 243.05 1366.04 234.31C1367.29 226.96 1368.12 221.44 1368.52 217.74ZM1368.3 183.72C1355.1 184.71 1289.09 189.66 1170.26 198.58L1168.47 214.88L1369.15 199.99C1368.86 192.69 1368.57 187.27 1368.3 183.72ZM1360.11 150.14C1341.94 151.51 1196.55 162.45 1178.38 163.82C1176.79 169.26 1175.2 174.69 1173.9 180.49C1186.66 179.54 1250.45 174.78 1365.28 166.22C1363.22 158.95 1361.49 153.59 1360.11 150.14ZM1339.61 117.52C1325.09 118.59 1209.01 127.21 1194.5 128.29C1190.95 133.51 1188.02 139.13 1185.02 145.4C1196.1 144.58 1251.46 140.43 1351.11 132.97C1346.17 125.83 1342.34 120.68 1339.61 117.52ZM1320.93 101.27C1311.1 94.57 1300.08 89.73 1288.81 87.17C1283.81 87.55 1243.87 90.55 1238.88 90.92C1228.85 95.1 1218.93 101.27 1210.09 109.54C1232.26 107.89 1309.84 102.09 1320.93 101.27Z" id="c10uxuMCG4"></path><linearGradient id="gradientb7TAUhdqVK" gradientUnits="userSpaceOnUse" x1="1613.19" y1="486.65" x2="1091.58" y2="429.28"><stop style="stop-color: #777777;stop-opacity: 1" offset="0%"></stop><stop style="stop-color: #2c2c2c;stop-opacity: 1" offset="100%"></stop></linearGradient><path d="M1402.55 484.57C1464.69 414.83 1597.9 299.09 1553.82 177.72C1509.73 56.35 1392.81 161.99 1345.67 101.35C1298.54 40.71 1282.15 0.61 1255.59 32.02C1229.03 63.43 1299.95 99.95 1219.94 164.1C1139.93 228.25 1039.99 251.59 1082.76 330.89C1125.53 410.2 1194.38 255.37 1219.47 360.45C1244.55 465.54 1071.17 664.34 1257.61 709.93C1352.46 732.91 1340.41 554.32 1402.55 484.57Z" id="e22lwY0i5"></path><linearGradient id="gradienthRYS3bF9R" gradientUnits="userSpaceOnUse" x1="1485.69" y1="679.65" x2="1123.78" y2="27.46"><stop style="stop-color: #777777;stop-opacity: 1" offset="0%"></stop><stop style="stop-color: #2c2c2c;stop-opacity: 1" offset="100%"></stop></linearGradient><path d="M87.83 697.38C108.54 775.48 175.65 815.19 157.91 846.22C116.65 918.38 30.08 895.53 -42.08 854.28C-114.25 813.02 -139.34 720.94 -98.09 648.77C-56.83 576.61 40.61 503.48 75.19 542.72C109.78 581.95 67.11 619.28 87.83 697.38Z" id="b6sV51nL9V"></path><linearGradient id="gradienta1ULVZYp48" gradientUnits="userSpaceOnUse" x1="130.14" y1="572.16" x2="-33.83" y2="858.99"><stop style="stop-color: #777777;stop-opacity: 1" offset="0%"></stop><stop style="stop-color: #2c2c2c;stop-opacity: 1" offset="100%"></stop></linearGradient><path d="M-195.15 1283.09C-171.23 1279.1 -145.07 1272.5 -116.67 1263.31C-75.18 1249.65 -26.09 1229.57 14.29 1198.32C-27.6 1215.27 -174.21 1274.61 -195.15 1283.09ZM-285.9 1283.06C-250.59 1268.79 31.89 1154.63 67.21 1140.36C61.94 1149.18 55.86 1157.34 49.43 1164.95C29.28 1173.11 -71.48 1213.87 -252.85 1287.25C-267.93 1285.99 -278.95 1284.59 -285.9 1283.06ZM-331.05 1264.8C-289.35 1247.93 44.29 1112.91 86 1096.03C84.22 1103.01 81.99 1109.88 79.14 1116.38C53.04 1126.93 -77.44 1179.68 -312.31 1274.63C-320.91 1270.52 -327.16 1267.24 -331.05 1264.8ZM-359.69 1239.49C-314.55 1221.23 46.61 1075.17 91.76 1056.91C91.54 1063.28 90.98 1069.1 90.13 1075.09C60.97 1086.89 -84.83 1145.93 -347.28 1252.2C-352.88 1246.69 -357.02 1242.45 -359.69 1239.49ZM-379.8 1211.07C-332.83 1192.07 42.93 1040.1 89.9 1021.11C90.52 1026.94 91.23 1032.33 91.4 1038.07C60.55 1050.53 -93.66 1112.87 -371.24 1225.07C-375.13 1218.98 -377.98 1214.32 -379.8 1211.07ZM-394.41 1180.29C-346.65 1160.99 35.35 1006.6 83.1 987.3C84.54 992.61 85.71 998.09 86.7 1003.3C55.06 1016.09 -103.16 1080.08 -387.96 1195.25C-390.81 1188.77 -392.96 1183.78 -394.41 1180.29ZM-401.04 1160.78C-402.4 1156.2 -403.32 1151.72 -404.23 1147.24C-356.58 1127.97 24.61 973.78 72.26 954.5C74.44 959.73 76.16 964.86 77.7 969.72C45.84 982.63 -113.45 1047.17 -400.18 1163.34C-400.58 1162.3 -400.87 1161.45 -401.04 1160.78ZM-402.97 1110.22C-356.81 1091.55 12.5 942.15 58.67 923.47C61.22 928.07 63.49 932.85 66.12 938.18C34.7 950.89 -122.39 1014.41 -405.15 1128.75C-404.44 1120.51 -403.72 1114.33 -402.97 1110.22ZM-387.02 1066.93C-344.46 1049.74 -4 912.24 38.55 895.05C42.21 898.94 45.77 903.29 49.12 908.54C19.43 920.54 -129.03 980.49 -396.27 1088.42C-392.44 1078.96 -389.36 1071.8 -387.02 1066.93ZM-358.88 1018.96C-322.08 1004.09 -27.71 885.14 9.09 870.27C14.48 873.83 19.6 877.57 24.61 881.76C-1.93 892.47 -134.64 946 -373.53 1042.34C-367.14 1032.03 -362.25 1024.24 -358.88 1018.96ZM-327.06 969.43C-297.17 957.34 -58.06 860.61 -28.17 848.52C-22.05 852.01 -15.93 855.49 -9.98 858.7C-32.12 867.65 -142.79 912.42 -341.99 992.99C-335.23 982.44 -330.25 974.58 -327.06 969.43ZM-302.31 922.85C-278.29 913.15 -86.15 835.54 -62.14 825.83C-56.85 829.85 -51.73 833.59 -46.61 837.33C-64.34 844.48 -152.99 880.23 -312.56 944.59C-307.58 934.91 -304.16 927.67 -302.31 922.85ZM-290.49 881.03C-270.46 872.94 -110.25 808.25 -90.22 800.17C-86.03 804.89 -81.92 808.89 -77.54 812.7C-92 818.54 -164.32 847.76 -294.5 900.34C-292.45 891.76 -291.11 885.32 -290.49 881.03ZM-290.5 844.44C-272.74 837.25 -130.66 779.79 -112.9 772.61C-109.44 777.41 -105.88 781.75 -102.5 785.82C-114.94 790.86 -177.11 816.05 -289.01 861.4C-289.41 853.86 -289.91 848.21 -290.5 844.44ZM-300.71 812.02C-289.46 807.48 -233.23 784.78 -132 743.93L-122.99 758.03L-294.54 827.16C-297.02 820.43 -299.07 815.39 -300.71 812.02ZM-319.44 782.71C-302.41 775.84 -166.2 720.88 -149.17 714.01C-146.44 718.89 -143.99 723.94 -141.17 728.37C-152.39 732.9 -208.54 755.53 -309.6 796.28C-313.67 790.32 -316.95 785.79 -319.44 782.71ZM-336.18 763.82C-338.68 761.13 -341.45 758.62 -343.67 755.75C-325.73 748.49 -182.17 690.4 -164.23 683.14C-161.78 688.19 -159.5 692.97 -157.23 697.75C-168.85 702.47 -226.95 726.1 -331.54 768.64C-333.44 766.48 -334.99 764.87 -336.18 763.82ZM-365.34 727.94C-346.72 720.4 -197.73 660.08 -179.11 652.54C-176.83 657.32 -174.56 662.09 -172.11 667.15C-184.35 672.12 -245.58 696.96 -355.78 741.68C-360.15 735.65 -363.34 731.07 -365.34 727.94ZM-380.22 697.34C-367.95 692.38 -306.57 667.56 -196.1 622.9L-187.27 636.73L-373.78 712.3C-376.74 705.63 -378.89 700.64 -380.22 697.34ZM-387.76 663.61C-370.86 656.78 -235.68 602.17 -218.78 595.34C-214.94 599.51 -211.11 603.68 -207.38 608.3C-219.24 613.1 -278.53 637.11 -385.26 680.31C-386.63 672.88 -387.47 667.31 -387.76 663.61ZM-383.83 625.27C-370.34 619.81 -262.46 576.1 -248.97 570.63C-243.48 573.74 -238.36 577.48 -232.9 581.78C-243.19 585.94 -294.65 606.76 -387.29 644.23C-386.03 635.64 -384.88 629.32 -383.83 625.27ZM-374.29 602.43C-368.44 592.07 -360.71 582.85 -351.74 575.56C-347.1 573.68 -309.96 558.67 -305.32 556.8C-294.47 556.1 -282.84 557.23 -271.26 560.74C-291.87 569.07 -363.98 598.26 -374.29 602.43Z" id="aPMsCiZNd"></path><linearGradient id="gradientb2tHvfGzY" gradientUnits="userSpaceOnUse" x1="-465.52" y1="1077.42" x2="-23.34" y2="794.85"><stop style="stop-color: #7a7a7a;stop-opacity: 1" offset="0%"></stop><stop style="stop-color: #4b4b4b;stop-opacity: 1" offset="100%"></stop></linearGradient></defs><g><g><g><use xlink:href="#a9VDdSGS4" opacity="1" fill="#1e1e1e" fill-opacity="1"></use></g><g><use xlink:href="#c10uxuMCG4" opacity="1" fill="url(#gradientb7TAUhdqVK)"></use><g><use xlink:href="#c10uxuMCG4" opacity="1" fill-opacity="0" stroke="#000000" stroke-width="1" stroke-opacity="0"></use></g></g><g><use xlink:href="#e22lwY0i5" opacity="1" fill="url(#gradienthRYS3bF9R)"></use><g><use xlink:href="#e22lwY0i5" opacity="1" fill-opacity="0" stroke="#000000" stroke-width="1" stroke-opacity="0"></use></g></g><g><use xlink:href="#b6sV51nL9V" opacity="1" fill="url(#gradienta1ULVZYp48)"></use></g><g><use xlink:href="#aPMsCiZNd" opacity="1" fill="url(#gradientb2tHvfGzY)"></use><g><use xlink:href="#aPMsCiZNd" opacity="1" fill-opacity="0" stroke="#000000" stroke-width="1" stroke-opacity="0"></use></g></g></g></g></svg>