<?xml version="1.0" encoding="UTF-8" standalone="no"?>
<!DOCTYPE svg PUBLIC "-//W3C//DTD SVG 1.1//EN" "http://www.w3.org/Graphics/SVG/1.1/DTD/svg11.dtd">
<svg version="1.1" xmlns="http://www.w3.org/2000/svg" xmlns:xlink="http://www.w3.org/1999/xlink" preserveAspectRatio="xMidYMid meet" viewBox="0 0 1350 1000" width="1350" height="1000"><defs><path d="M0 0L1350 0L1350 1000L0 1000L0 0Z" id="c4wiKqdPbR"></path><path d="M1461.95 790.83C1438.73 797.85 1412.36 803.54 1382.83 807.88C1339.58 814.01 1286.68 817.77 1236.63 807.64C1281.69 804.28 1439.42 792.52 1461.95 790.83ZM1543.29 750.6C1505.31 753.45 1201.49 776.28 1163.51 779.13C1172.14 784.7 1181.2 789.33 1190.34 793.31C1212.02 791.69 1320.41 783.58 1515.52 769C1528.48 761.18 1537.74 755.05 1543.29 750.6ZM1575.68 714.22C1530.81 717.57 1171.89 744.37 1127.02 747.72C1131.7 753.19 1136.75 758.36 1142.19 762.92C1170.26 760.82 1310.6 750.29 1563.23 731.33C1569.12 723.84 1573.27 718.13 1575.68 714.22ZM1590.13 678.84C1541.57 682.47 1153.08 711.57 1104.52 715.21C1107.54 720.82 1110.62 725.78 1114.03 730.78C1145.41 728.44 1302.28 716.76 1584.64 695.73C1587.22 688.31 1589.05 682.68 1590.13 678.84ZM1595.57 644.45C1545.04 648.23 1140.84 678.5 1090.32 682.29C1092.35 687.79 1094.1 692.94 1096.5 698.15C1129.67 695.66 1295.54 683.21 1594.1 660.79C1594.89 653.61 1595.38 648.17 1595.57 644.45ZM1595.02 610.39C1543.66 614.24 1132.8 645.1 1081.44 648.96C1082.5 654.36 1083.88 659.79 1085.3 664.9C1119.34 662.35 1289.53 649.6 1595.87 626.65C1595.55 619.58 1595.27 614.15 1595.02 610.39ZM1592.32 589.95C1591.52 585.24 1590.35 580.82 1589.19 576.4C1537.93 580.24 1127.88 610.93 1076.62 614.76C1076.99 620.41 1077.72 625.78 1078.49 630.81C1112.77 628.27 1284.16 615.54 1592.68 592.63C1592.59 591.52 1592.46 590.63 1592.32 589.95ZM1571.65 543.78C1521.99 547.49 1124.72 577.21 1075.06 580.92C1074.81 586.17 1074.89 591.46 1074.9 597.41C1108.69 594.87 1277.66 582.21 1581.81 559.42C1577.53 552.34 1574.14 547.13 1571.65 543.78ZM1538.17 512.03C1492.4 515.48 1126.26 543.08 1080.49 546.53C1078.94 551.64 1077.68 557.11 1077 563.31C1108.93 560.9 1268.59 548.86 1555.98 527.2C1548.36 520.42 1542.43 515.36 1538.17 512.03ZM1491.68 481.5C1452.11 484.48 1135.5 508.28 1095.93 511.25C1092.67 516.84 1089.74 522.46 1087.11 528.44C1115.64 526.27 1258.34 515.45 1515.18 495.97C1504.88 489.56 1497.05 484.74 1491.68 481.5ZM1441.21 451.2C1409.06 453.6 1151.85 472.84 1119.69 475.25C1115.75 481.09 1111.81 486.92 1107.9 492.44C1131.71 490.65 1250.75 481.74 1465.03 465.7C1454.3 459.24 1446.36 454.4 1441.21 451.2ZM1398.39 420.41C1372.56 422.35 1165.92 437.91 1140.09 439.86C1137.13 445.81 1134.2 451.43 1131.27 457.04C1150.33 455.6 1245.64 448.37 1417.21 435.35C1408.46 428.89 1402.18 423.91 1398.39 420.41ZM1369.25 388.15C1347.72 389.78 1175.43 402.78 1153.89 404.41C1152.23 410.5 1150.32 415.9 1148.08 421.26C1163.63 420.09 1241.41 414.23 1381.41 403.69C1375.77 396.9 1371.72 391.73 1369.25 388.15ZM1353.06 355.34C1333.95 356.77 1181.11 368.22 1162.01 369.65C1161.04 375.48 1159.77 380.96 1158.55 386.1C1171.93 385.11 1238.82 380.15 1359.23 371.21C1356.26 364.28 1354.2 358.99 1353.06 355.34ZM1347.84 321.76C1335.74 322.67 1275.27 327.25 1166.43 335.48L1164.6 352.11L1349.02 338.06C1348.26 330.94 1347.87 325.5 1347.84 321.76ZM1351.64 287.19C1333.33 288.57 1186.87 299.66 1168.56 301.05C1168.28 306.63 1168.32 312.25 1167.75 317.47C1179.82 316.55 1240.18 311.96 1348.83 303.71C1349.84 296.56 1350.78 291.05 1351.64 287.19ZM1358.28 262.83C1359.33 259.32 1360.7 255.84 1361.42 252.28C1342.12 253.73 1187.68 265.26 1168.38 266.7C1168.42 272.32 1168.5 277.61 1168.58 282.9C1181.09 281.98 1243.65 277.42 1356.26 269.21C1357 266.43 1357.68 264.31 1358.28 262.83ZM1368.52 217.74C1348.49 219.24 1188.2 231.18 1168.16 232.68C1168.24 237.97 1168.32 243.26 1168.36 248.87C1181.54 247.9 1247.43 243.05 1366.04 234.31C1367.29 226.96 1368.12 221.44 1368.52 217.74ZM1368.3 183.72C1355.1 184.71 1289.09 189.66 1170.26 198.58L1168.47 214.88L1369.15 199.99C1368.86 192.69 1368.57 187.27 1368.3 183.72ZM1360.11 150.14C1341.94 151.51 1196.55 162.45 1178.38 163.82C1176.79 169.26 1175.2 174.69 1173.9 180.49C1186.66 179.54 1250.45 174.78 1365.28 166.22C1363.22 158.95 1361.49 153.59 1360.11 150.14ZM1339.61 117.52C1325.09 118.59 1209.01 127.21 1194.5 128.29C1190.95 133.51 1188.02 139.13 1185.02 145.4C1196.1 144.58 1251.46 140.43 1351.11 132.97C1346.17 125.83 1342.34 120.68 1339.61 117.52ZM1320.93 101.27C1311.1 94.57 1300.08 89.73 1288.81 87.17C1283.81 87.55 1243.87 90.55 1238.88 90.92C1228.85 95.1 1218.93 101.27 1210.09 109.54C1232.26 107.89 1309.84 102.09 1320.93 101.27Z" id="c3aEPfw2sa"></path><linearGradient id="gradientb2zUc1xV8w" gradientUnits="userSpaceOnUse" x1="1613.19" y1="486.65" x2="1091.58" y2="429.28"><stop style="stop-color: #777777;stop-opacity: 1" offset="0%"></stop><stop style="stop-color: #2c2c2c;stop-opacity: 1" offset="100%"></stop></linearGradient><path d="M1311.83 681.11C1355.18 633.44 1344.35 514.45 1385.67 468.07C1447.81 398.32 1581.03 282.58 1536.94 161.21C1492.85 39.84 1409.73 111.68 1318.23 74.28C1226.74 36.87 1194.34 125.69 1162.92 170.83C1131.5 215.97 1023.11 235.08 1065.88 314.39C1108.65 393.69 1177.51 302.23 1202.59 407.32C1227.67 512.41 1137 695.27 1202.59 719.13C1268.17 742.99 1290 705.12 1311.83 681.11Z" id="a1ukeGRGeR"></path><linearGradient id="gradientdiDdriKdE" gradientUnits="userSpaceOnUse" x1="1465.02" y1="697.92" x2="1101.18" y2="67.58"><stop style="stop-color: #777777;stop-opacity: 1" offset="0%"></stop><stop style="stop-color: #2c2c2c;stop-opacity: 1" offset="100%"></stop></linearGradient><path d="M87.83 697.38C108.54 775.48 175.65 815.19 157.91 846.22C116.65 918.38 30.08 895.53 -42.08 854.28C-114.25 813.02 -139.34 720.94 -98.09 648.77C-56.83 576.61 40.61 503.48 75.19 542.72C109.78 581.95 67.11 619.28 87.83 697.38Z" id="a36KhgTuiA"></path><linearGradient id="gradientb2z4SE505L" gradientUnits="userSpaceOnUse" x1="130.14" y1="572.16" x2="-33.83" y2="858.99"><stop style="stop-color: #777777;stop-opacity: 1" offset="0%"></stop><stop style="stop-color: #2c2c2c;stop-opacity: 1" offset="100%"></stop></linearGradient><path d="M-220.5 1042.27C-196.58 1038.28 -170.42 1031.68 -142.02 1022.49C-100.52 1008.83 -51.44 988.75 -11.06 957.49C-52.95 974.45 -199.56 1033.79 -220.5 1042.27ZM-311.25 1042.24C-275.94 1027.97 6.55 913.81 41.86 899.54C36.59 908.36 30.51 916.52 24.08 924.13C3.93 932.29 -96.83 973.05 -278.2 1046.43C-293.28 1045.17 -304.3 1043.77 -311.25 1042.24ZM-356.4 1023.98C-314.7 1007.1 18.94 872.09 60.65 855.21C58.87 862.19 56.65 869.06 53.79 875.56C27.69 886.11 -102.79 938.86 -337.66 1033.81C-346.26 1029.7 -352.51 1026.42 -356.4 1023.98ZM-385.04 998.67C-339.89 980.41 21.26 834.35 66.41 816.09C66.2 822.46 65.63 828.28 64.78 834.27C35.62 846.07 -110.18 905.11 -372.63 1011.38C-378.23 1005.87 -382.37 1001.63 -385.04 998.67ZM-405.15 970.25C-358.18 951.25 17.58 799.28 64.56 780.29C65.17 786.12 65.89 791.51 66.05 797.25C35.2 809.71 -119.01 872.05 -396.59 984.25C-400.48 978.16 -403.33 973.5 -405.15 970.25ZM-419.75 939.47C-372 920.17 10 765.78 57.75 746.48C59.19 751.78 60.36 757.27 61.35 762.48C29.71 775.27 -128.51 839.26 -413.31 954.43C-416.16 947.94 -418.31 942.96 -419.75 939.47ZM-426.39 919.95C-427.75 915.38 -428.67 910.9 -429.58 906.42C-381.93 887.15 -0.74 732.96 46.91 713.68C49.09 718.91 50.81 724.04 52.35 728.9C20.49 741.81 -138.8 806.35 -425.52 922.52C-425.93 921.48 -426.22 920.63 -426.39 919.95ZM-428.32 869.4C-382.15 850.73 -12.85 701.33 33.32 682.65C35.87 687.25 38.14 692.03 40.77 697.36C9.35 710.07 -147.74 773.59 -430.5 887.93C-429.79 879.69 -429.07 873.51 -428.32 869.4ZM-412.37 826.11C-369.81 808.92 -29.35 671.42 13.21 654.23C16.86 658.12 20.42 662.47 23.78 667.72C-5.92 679.71 -154.38 739.67 -421.61 847.59C-417.79 838.14 -414.71 830.98 -412.37 826.11ZM-384.22 778.14C-347.43 763.27 -53.06 644.32 -16.26 629.45C-10.87 633.01 -5.75 636.75 -0.74 640.94C-27.28 651.65 -159.99 705.18 -398.88 801.52C-392.49 791.21 -387.6 783.42 -384.22 778.14ZM-352.41 728.61C-322.52 716.52 -83.41 619.79 -53.52 607.7C-47.4 611.19 -41.28 614.67 -35.33 617.88C-57.47 626.83 -168.13 671.6 -367.34 752.17C-360.58 741.62 -355.6 733.76 -352.41 728.61ZM-327.66 682.03C-303.64 672.33 -111.5 594.72 -87.49 585.01C-82.19 589.03 -77.08 592.77 -71.96 596.51C-89.69 603.66 -178.34 639.41 -337.91 703.77C-332.93 694.09 -329.51 686.85 -327.66 682.03ZM-315.83 640.21C-295.81 632.12 -135.6 567.43 -115.57 559.35C-111.38 564.07 -107.27 568.06 -102.89 571.88C-117.35 577.72 -189.67 606.94 -319.85 659.52C-317.8 650.94 -316.46 644.5 -315.83 640.21ZM-315.85 603.62C-298.09 596.43 -156.01 538.97 -138.25 531.78C-134.79 536.58 -131.23 540.93 -127.85 545C-140.29 550.04 -202.46 575.23 -314.36 620.58C-314.76 613.04 -315.26 607.39 -315.85 603.62ZM-326.06 571.2C-314.81 566.66 -258.57 543.96 -157.35 503.11L-148.34 517.21L-319.89 586.34C-322.37 579.61 -324.42 574.57 -326.06 571.2ZM-344.79 541.89C-327.76 535.02 -191.55 480.06 -174.52 473.19C-171.79 478.07 -169.34 483.12 -166.52 487.55C-177.74 492.07 -233.89 514.71 -334.95 555.46C-339.02 549.5 -342.3 544.97 -344.79 541.89ZM-361.53 523C-364.03 520.31 -366.8 517.8 -369.02 514.93C-351.08 507.67 -207.52 449.58 -189.58 442.32C-187.13 447.37 -184.85 452.15 -182.58 456.93C-194.2 461.65 -252.3 485.28 -356.89 527.82C-358.79 525.66 -360.34 524.05 -361.53 523ZM-390.69 487.12C-372.07 479.58 -223.08 419.26 -204.46 411.72C-202.18 416.5 -199.91 421.27 -197.46 426.33C-209.7 431.3 -270.93 456.14 -381.13 500.86C-385.5 494.83 -388.69 490.25 -390.69 487.12ZM-405.57 456.52C-393.3 451.56 -331.92 426.74 -221.45 382.08L-212.62 395.91L-399.13 471.48C-402.09 464.81 -404.24 459.82 -405.57 456.52ZM-413.11 422.79C-396.21 415.96 -261.02 361.35 -244.13 354.52C-240.29 358.69 -236.46 362.86 -232.73 367.48C-244.59 372.28 -303.88 396.29 -410.61 439.49C-411.98 432.06 -412.82 426.49 -413.11 422.79ZM-409.18 384.45C-395.69 378.99 -287.81 335.28 -274.32 329.81C-268.83 332.92 -263.71 336.66 -258.24 340.96C-268.54 345.12 -320 365.94 -412.64 403.41C-411.38 394.82 -410.23 388.5 -409.18 384.45ZM-399.64 361.61C-393.79 351.25 -386.06 342.03 -377.09 334.74C-372.45 332.86 -335.31 317.85 -330.67 315.98C-319.82 315.28 -308.19 316.41 -296.61 319.91C-317.22 328.25 -389.33 357.44 -399.64 361.61Z" id="al4PoyTnG"></path><linearGradient id="gradientd1s1o8FiIN" gradientUnits="userSpaceOnUse" x1="-490.87" y1="836.6" x2="-48.69" y2="554.03"><stop style="stop-color: #7a7a7a;stop-opacity: 1" offset="0%"></stop><stop style="stop-color: #4b4b4b;stop-opacity: 1" offset="100%"></stop></linearGradient></defs><g><g><g><use xlink:href="#c4wiKqdPbR" opacity="1" fill="#1e1e1e" fill-opacity="1"></use></g><g><use xlink:href="#c3aEPfw2sa" opacity="1" fill="url(#gradientb2zUc1xV8w)"></use><g><use xlink:href="#c3aEPfw2sa" opacity="1" fill-opacity="0" stroke="#000000" stroke-width="1" stroke-opacity="0"></use></g></g><g><use xlink:href="#a1ukeGRGeR" opacity="1" fill="url(#gradientdiDdriKdE)"></use><g><use xlink:href="#a1ukeGRGeR" opacity="1" fill-opacity="0" stroke="#000000" stroke-width="1" stroke-opacity="0"></use></g></g><g><use xlink:href="#a36KhgTuiA" opacity="1" fill="url(#gradientb2z4SE505L)"></use></g><g><use xlink:href="#al4PoyTnG" opacity="1" fill="url(#gradientd1s1o8FiIN)"></use><g><use xlink:href="#al4PoyTnG" opacity="1" fill-opacity="0" stroke="#000000" stroke-width="1" stroke-opacity="0"></use></g></g></g></g></svg>