<svg xmlns="http://www.w3.org/2000/svg" xmlns:xlink="http://www.w3.org/1999/xlink" preserveAspectRatio="xMidYMid meet" width="175" height="1000" xmlns:v="https://vecta.io/nano"><defs><path d="M55.8 583.26l3.72.8 3.54 1.15 3.35 1.54 3.15 1.92 2.94 2.32 2.7 2.74 2.46 2.94 2.17 2.93 1.9 2.94 1.66 2.94 1.43 2.95 1.2 2.97 1 2.98.8 3 .6 3.03.43 3.05.28 3.1.14 3.13v3.16l-.1 3.2-.22 3.26-.32 3.3-.4 3.37-.45 3.43-.5 3.5-.55 3.56-.57 3.64-.6 3.7-.6 3.8-.57 3.88-.55 3.97-.5 4.06-.46 4.15-.38 4.26-.3 4.37-.2 4.47-.1 4.6.01 4.7.14 4.82.3 4.95.44 5.08.62 5.2.8 5.35 1 5.48 1.2 5.64 1.44 5.78 1.63 5.8 1.8 5.64 1.95 5.5 2.1 5.37 2.2 5.24 2.33 5.1 2.42 4.98 2.5 4.86 2.6 4.74 2.65 4.6 2.7 4.5 2.74 4.4 2.77 4.27 2.78 4.17 2.78 4.06 2.77 3.96 2.75 3.87 2.7 3.76 2.67 3.67 2.6 3.58 2.53 3.5 2.45 3.4 2.35 3.32 2.25 3.25 2.12 3.16 2 3.1 1.84 3.02 1.7 2.96 1.5 2.88 1.33 2.82 1.14 2.77.93 2.7.7 2.65.48 2.6.23 2.55-.03 2.5-.3 2.46-.57 2.42-.87 2.37-1.17 2.35-3.18 5.23-3.34 4.9-3.5 4.54-3.66 4.2-3.8 3.9-3.95 3.56-4.08 3.25-4.2 2.94-4.33 2.64-4.46 2.35-4.57 2.07-4.68 1.8-4.78 1.52-4.87 1.26-4.97 1-5.06.75-5.13.5-5.2.28-5.28.05-5.35-.17-5.4-.38-5.45-.6-5.5-.8-5.54-.98-5.58-1.16-5.6-1.33-5.63-1.5-5.65-1.67-5.66-1.83-5.67-1.97-5.67-2.12-5.67-2.24L0 926.17V599.4l1.17-.7 5-2.8 4.96-2.56 4.9-2.32 4.84-2.05 4.75-1.77 4.67-1.5 4.57-1.2 4.45-.9 4.33-.58 4.2-.26 4.05.08 3.9.43z" id="A"/><linearGradient id="B" gradientUnits="userSpaceOnUse" x1="145.47" y1="631.94" x2="-17.13" y2="916.38"><stop offset="0%" stop-color="#777"/><stop offset="100%" stop-color="#2c2c2c"/></linearGradient><path d="M4.16 680.1l2.04.28 2.02.4 2 .52 1.97.65 1.93.77 1.9.9 1.87 1.03 1.84 1.16 1.8 1.3 1.76 1.43L25 690.1l1.7 1.7 1.64 1.85 1.6 2 1.55 2.15 1.5 2.3 1.45 2.44 1.4 2.6 1.35 2.76 1.3 2.9 1.24 3.08 1.18 3.24 1.13 3.4 1.06 3.58 1 3.74.94 3.92.87 4.1.8 4.27.74 4.45.66 4.63.6 4.8.5 5 .45 5.2.37 5.37.28 5.57.2 5.77.13 5.96.04 6.16-.03 2.85-.1 2.87-.14 2.9-.2 2.9-.24 2.9-.28 2.9-.33 2.93-.37 2.93-.4 2.95-.44 2.94-.48 2.96-.5 2.96-.53 2.96-.56 2.96-.58 2.97-.6 2.96-.6 2.97-.63 2.96-1.28 5.92-.65 2.96-.66 2.95-.65 2.94-.66 2.94-1.28 5.85-.63 2.9-.62 2.9-.6 2.9-.58 2.87-.56 2.86-.53 2.85-.5 2.83-.48 2.8-.45 2.8-.4 2.78-.37 2.75-.34 2.74-.3 2.72-.24 2.7-.25 2.7-.28 2.7-.32 2.7-.35 2.68-.4 2.68-.43 2.67-.46 2.65-.5 2.64-.54 2.6-.56 2.58-.6 2.56-.63 2.52-.65 2.5-.7 2.44-.72 2.4-.74 2.35-.77 2.3-.8 2.24-.82 2.18-.84 2.12-.87 2.05-.9 2-.9 1.9-.93 1.83-.95 1.75-.96 1.66-1 1.57-1 1.48-1.02 1.38-1.04 1.28-1.05 1.18-1.06 1.07-1.08.96-1.08.84-1.1.72-1.1.6-1.12.47-1.13.35-1.13.2-1.14.07V679.86l2.1.06 2.07.17z" id="C"/><mask id="D" x="-10" y="669.86" width="70.7" height="322.48" maskUnits="userSpaceOnUse"><path fill="#fff" d="M-10 669.86h70.7v322.48H-10z"/><use xlink:href="#C" opacity="1" fill="#000"/></mask></defs><use xlink:href="#A" fill="url(#B)"/><g mask="url(#D)"><use xlink:href="#C" fill-opacity="0" stroke="#fff" stroke-width="10"/></g></svg>